<svg width="50" height="49" viewBox="0 0 50 49" fill="none" xmlns="http://www.w3.org/2000/svg">
<g filter="url(#filter0_d_1_1885)">
<rect x="2.48682" width="45.4866" height="45.4866" rx="4.16143" fill="white"/>
</g>
<path d="M25.2295 36.3887C32.766 36.3887 38.8755 30.2791 38.8755 22.7427C38.8755 15.2062 32.766 9.09668 25.2295 9.09668C17.693 9.09668 11.5835 15.2062 11.5835 22.7427C11.5835 30.2791 17.693 36.3887 25.2295 36.3887Z" fill="#4176FA"/>
<path d="M30.1216 20.3698C26.1802 20.3698 26.1751 24.2964 26.1751 24.3166C26.1751 24.3166 25.9051 28.2481 30.1216 28.2481C30.1216 28.2481 33.6381 28.448 33.6381 25.512H31.8324C31.8324 25.512 31.8923 26.6173 30.1817 26.6173C30.1817 26.6173 28.376 26.7375 28.376 24.8316H33.6982C33.6982 24.8316 34.2834 20.3698 30.1216 20.3698ZM28.3558 23.456C28.3558 23.456 28.576 21.8753 30.1618 21.8753C31.7524 21.8753 31.7273 23.456 31.7273 23.456H28.3558ZM23.8445 22.4458C23.8445 22.4458 25.4101 22.3307 25.4101 20.49C25.4101 18.6544 24.1296 17.7539 22.5039 17.7539H17.1565V28.0328H22.5034C22.5034 28.0328 25.7698 28.133 25.7698 24.9968C25.7698 24.9968 25.9102 22.4458 23.8445 22.4458ZM19.5126 19.5795H22.5037C22.5037 19.5795 23.2291 19.5795 23.2291 20.6498C23.2291 21.7201 22.8038 21.8753 22.3186 21.8753H19.5126V19.5795ZM22.3538 26.2072H19.5126V23.456H22.5037C22.5037 23.456 23.5893 23.446 23.5842 24.8715C23.5842 26.0722 22.779 26.1972 22.3538 26.2072ZM27.9107 18.3591V19.6248H32.1525V18.3591H27.9107Z" fill="#F1F2F2"/>
<defs>
<filter id="filter0_d_1_1885" x="0.822243" y="0" width="48.8157" height="48.8155" filterUnits="userSpaceOnUse" color-interpolation-filters="sRGB">
<feFlood flood-opacity="0" result="BackgroundImageFix"/>
<feColorMatrix in="SourceAlpha" type="matrix" values="0 0 0 0 0 0 0 0 0 0 0 0 0 0 0 0 0 0 127 0" result="hardAlpha"/>
<feOffset dy="1.66457"/>
<feGaussianBlur stdDeviation="0.832287"/>
<feComposite in2="hardAlpha" operator="out"/>
<feColorMatrix type="matrix" values="0 0 0 0 0 0 0 0 0 0 0 0 0 0 0 0 0 0 0.25 0"/>
<feBlend mode="normal" in2="BackgroundImageFix" result="effect1_dropShadow_1_1885"/>
<feBlend mode="normal" in="SourceGraphic" in2="effect1_dropShadow_1_1885" result="shape"/>
</filter>
</defs>
</svg>
