<svg width="16" height="18" viewBox="0 0 16 18" fill="none" xmlns="http://www.w3.org/2000/svg">
<path d="M10.0011 8.99902V16.879C10.0411 17.179 9.94111 17.499 9.71111 17.709C9.61859 17.8017 9.50871 17.8753 9.38773 17.9255C9.26676 17.9756 9.13708 18.0015 9.00611 18.0015C8.87514 18.0015 8.74546 17.9756 8.62448 17.9255C8.50351 17.8753 8.39362 17.8017 8.30111 17.709L6.29111 15.699C6.18211 15.5924 6.09922 15.462 6.04892 15.318C5.99861 15.174 5.98225 15.0204 6.00111 14.869V8.99902H5.97111L0.211108 1.61902C0.0487158 1.41055 -0.0245586 1.14628 0.00729555 0.883953C0.0391497 0.621625 0.173543 0.38257 0.381108 0.219023C0.571108 0.0790235 0.781108 -0.000976562 1.00111 -0.000976562H15.0011C15.2211 -0.000976562 15.4311 0.0790235 15.6211 0.219023C15.8287 0.38257 15.9631 0.621625 15.9949 0.883953C16.0268 1.14628 15.9535 1.41055 15.7911 1.61902L10.0311 8.99902H10.0011Z" fill="white"/>
</svg>
