<svg width="96" height="48" viewBox="0 0 96 48" fill="none" xmlns="http://www.w3.org/2000/svg">
<rect width="96" height="48" rx="24" fill="white"/>
<circle cx="27" cy="24" r="18" fill="#5E5E5E"/>
<path d="M71 13V10C71 9.73478 71.1054 9.48043 71.2929 9.29289C71.4804 9.10536 71.7348 9 72 9C72.2652 9 72.5196 9.10536 72.7071 9.29289C72.8946 9.48043 73 9.73478 73 10V13C73 13.2652 72.8946 13.5196 72.7071 13.7071C72.5196 13.8946 72.2652 14 72 14C71.7348 14 71.4804 13.8946 71.2929 13.7071C71.1054 13.5196 71 13.2652 71 13ZM72 16C70.4177 16 68.871 16.4692 67.5554 17.3482C66.2398 18.2273 65.2145 19.4767 64.609 20.9385C64.0035 22.4003 63.845 24.0089 64.1537 25.5607C64.4624 27.1126 65.2243 28.538 66.3431 29.6569C67.462 30.7757 68.8874 31.5376 70.4393 31.8463C71.9911 32.155 73.5997 31.9965 75.0615 31.391C76.5233 30.7855 77.7727 29.7602 78.6518 28.4446C79.5308 27.129 80 25.5823 80 24C79.9977 21.879 79.1541 19.8455 77.6543 18.3457C76.1545 16.8459 74.121 16.0023 72 16ZM63.2925 16.7075C63.4801 16.8951 63.7346 17.0006 64 17.0006C64.2654 17.0006 64.5199 16.8951 64.7075 16.7075C64.8951 16.5199 65.0006 16.2654 65.0006 16C65.0006 15.7346 64.8951 15.4801 64.7075 15.2925L62.7075 13.2925C62.5199 13.1049 62.2654 12.9994 62 12.9994C61.7346 12.9994 61.4801 13.1049 61.2925 13.2925C61.1049 13.4801 60.9994 13.7346 60.9994 14C60.9994 14.2654 61.1049 14.5199 61.2925 14.7075L63.2925 16.7075ZM63.2925 31.2925L61.2925 33.2925C61.1049 33.4801 60.9994 33.7346 60.9994 34C60.9994 34.2654 61.1049 34.5199 61.2925 34.7075C61.4801 34.8951 61.7346 35.0006 62 35.0006C62.2654 35.0006 62.5199 34.8951 62.7075 34.7075L64.7075 32.7075C64.8004 32.6146 64.8741 32.5043 64.9244 32.3829C64.9747 32.2615 65.0006 32.1314 65.0006 32C65.0006 31.8686 64.9747 31.7385 64.9244 31.6171C64.8741 31.4957 64.8004 31.3854 64.7075 31.2925C64.6146 31.1996 64.5043 31.1259 64.3829 31.0756C64.2615 31.0253 64.1314 30.9994 64 30.9994C63.8686 30.9994 63.7385 31.0253 63.6171 31.0756C63.4957 31.1259 63.3854 31.1996 63.2925 31.2925ZM80 17C80.1314 17.0001 80.2615 16.9743 80.3829 16.9241C80.5042 16.8739 80.6146 16.8003 80.7075 16.7075L82.7075 14.7075C82.8951 14.5199 83.0006 14.2654 83.0006 14C83.0006 13.7346 82.8951 13.4801 82.7075 13.2925C82.5199 13.1049 82.2654 12.9994 82 12.9994C81.7346 12.9994 81.4801 13.1049 81.2925 13.2925L79.2925 15.2925C79.1525 15.4324 79.0571 15.6106 79.0185 15.8047C78.9798 15.9988 78.9996 16.2 79.0754 16.3828C79.1511 16.5656 79.2794 16.7218 79.444 16.8317C79.6086 16.9416 79.8021 17.0002 80 17ZM80.7075 31.2925C80.5199 31.1049 80.2654 30.9994 80 30.9994C79.7346 30.9994 79.4801 31.1049 79.2925 31.2925C79.1049 31.4801 78.9994 31.7346 78.9994 32C78.9994 32.2654 79.1049 32.5199 79.2925 32.7075L81.2925 34.7075C81.3854 34.8004 81.4957 34.8741 81.6171 34.9244C81.7385 34.9747 81.8686 35.0006 82 35.0006C82.1314 35.0006 82.2615 34.9747 82.3829 34.9244C82.5043 34.8741 82.6146 34.8004 82.7075 34.7075C82.8004 34.6146 82.8741 34.5043 82.9244 34.3829C82.9747 34.2615 83.0006 34.1314 83.0006 34C83.0006 33.8686 82.9747 33.7385 82.9244 33.6171C82.8741 33.4957 82.8004 33.3854 82.7075 33.2925L80.7075 31.2925ZM62 24C62 23.7348 61.8946 23.4804 61.7071 23.2929C61.5196 23.1054 61.2652 23 61 23H58C57.7348 23 57.4804 23.1054 57.2929 23.2929C57.1054 23.4804 57 23.7348 57 24C57 24.2652 57.1054 24.5196 57.2929 24.7071C57.4804 24.8946 57.7348 25 58 25H61C61.2652 25 61.5196 24.8946 61.7071 24.7071C61.8946 24.5196 62 24.2652 62 24ZM72 34C71.7348 34 71.4804 34.1054 71.2929 34.2929C71.1054 34.4804 71 34.7348 71 35V38C71 38.2652 71.1054 38.5196 71.2929 38.7071C71.4804 38.8946 71.7348 39 72 39C72.2652 39 72.5196 38.8946 72.7071 38.7071C72.8946 38.5196 73 38.2652 73 38V35C73 34.7348 72.8946 34.4804 72.7071 34.2929C72.5196 34.1054 72.2652 34 72 34ZM86 23H83C82.7348 23 82.4804 23.1054 82.2929 23.2929C82.1054 23.4804 82 23.7348 82 24C82 24.2652 82.1054 24.5196 82.2929 24.7071C82.4804 24.8946 82.7348 25 83 25H86C86.2652 25 86.5196 24.8946 86.7071 24.7071C86.8946 24.5196 87 24.2652 87 24C87 23.7348 86.8946 23.4804 86.7071 23.2929C86.5196 23.1054 86.2652 23 86 23Z" fill="#5D5D5D"/>
</svg>
