<svg width="50" height="49" viewBox="0 0 50 49" fill="none" xmlns="http://www.w3.org/2000/svg">
<g filter="url(#filter0_d_1_1867)">
<rect x="2" width="45.4866" height="45.4866" rx="4.16143" fill="white"/>
</g>
<path d="M11.0972 17.1846V31.5875C11.0972 33.2721 11.8553 34.1144 13.3715 34.1144H17.3137V17.1846" fill="#4285F4"/>
<path d="M32.1726 17.1846V34.1144H36.1148C37.631 34.1144 38.3891 33.2721 38.3891 31.5875V17.1846" fill="#34A853"/>
<path d="M31.8689 22.6578V13.7296L33.9916 11.9608C35.8111 10.4447 38.3886 12.1293 38.3886 14.4877V17.183" fill="#FBBC04"/>
<path d="M17.0105 22.1547V13.2266L24.7432 19.7121L32.1727 13.4792V22.4074L24.7432 28.6403" fill="#EA4335"/>
<path d="M11.0969 17.1854V14.4901C11.0969 12.0475 13.6745 10.4472 15.494 11.9633L17.3134 13.4794V22.4076" fill="#C5221F"/>
<defs>
<filter id="filter0_d_1_1867" x="0.335427" y="0" width="48.8157" height="48.8155" filterUnits="userSpaceOnUse" color-interpolation-filters="sRGB">
<feFlood flood-opacity="0" result="BackgroundImageFix"/>
<feColorMatrix in="SourceAlpha" type="matrix" values="0 0 0 0 0 0 0 0 0 0 0 0 0 0 0 0 0 0 127 0" result="hardAlpha"/>
<feOffset dy="1.66457"/>
<feGaussianBlur stdDeviation="0.832287"/>
<feComposite in2="hardAlpha" operator="out"/>
<feColorMatrix type="matrix" values="0 0 0 0 0 0 0 0 0 0 0 0 0 0 0 0 0 0 0.25 0"/>
<feBlend mode="normal" in2="BackgroundImageFix" result="effect1_dropShadow_1_1867"/>
<feBlend mode="normal" in="SourceGraphic" in2="effect1_dropShadow_1_1867" result="shape"/>
</filter>
</defs>
</svg>
