<svg width="24" height="24" viewBox="0 0 24 24" fill="none" xmlns="http://www.w3.org/2000/svg">
<path d="M23.9998 12.2668C23.9998 11.2801 23.9181 10.5601 23.7413 9.81348H12.2446V14.2668H18.9929C18.8569 15.3735 18.1222 17.0401 16.4895 18.1601L16.4666 18.3092L20.1017 21.0688L20.3535 21.0935C22.6664 19.0001 23.9998 15.9201 23.9998 12.2668Z" fill="#4285F4"/>
<path d="M12.245 23.9997C15.5511 23.9997 18.3266 22.933 20.3539 21.093L16.4899 18.1596C15.4559 18.8663 14.0681 19.3596 12.245 19.3596C9.00694 19.3596 6.25864 17.2664 5.27895 14.373L5.13535 14.385L1.35558 17.2517L1.30615 17.3863C3.31975 21.3063 7.45584 23.9997 12.245 23.9997Z" fill="#34A853"/>
<path d="M5.2789 14.3731C5.0204 13.6265 4.87079 12.8264 4.87079 11.9998C4.87079 11.1731 5.0204 10.3731 5.2653 9.62643L5.25845 9.46741L1.43132 6.55469L1.3061 6.61306C0.476199 8.23974 0 10.0664 0 11.9998C0 13.9331 0.476199 15.7597 1.3061 17.3864L5.2789 14.3731Z" fill="#FBBC05"/>
<path d="M12.245 4.63997C14.5443 4.63997 16.0953 5.6133 16.9797 6.42669L20.4355 3.12C18.3131 1.18667 15.5511 0 12.245 0C7.45584 0 3.31975 2.69331 1.30615 6.61328L5.26535 9.62665C6.25864 6.73333 9.00694 4.63997 12.245 4.63997Z" fill="#EB4335"/>
</svg>
