<svg width="18" height="22" viewBox="0 0 18 22" fill="none" xmlns="http://www.w3.org/2000/svg">
<path d="M15.3636 16.197L10.469 21.3582C10.2762 21.5617 10.0471 21.7231 9.79508 21.8332C9.54301 21.9433 9.27283 22 8.99998 22C8.72712 22 8.45694 21.9433 8.20488 21.8332C7.95281 21.7231 7.7238 21.5617 7.53092 21.3582L2.63638 16.197C1.80061 15.316 1.13762 14.2701 0.68527 13.119C0.232919 11.9679 6.43079e-05 10.7342 1.33181e-08 9.48826C-6.42813e-05 8.24231 0.232663 7.00855 0.684895 5.85742C1.13713 4.70629 1.80001 3.66033 2.63569 2.77926C3.47137 1.89819 4.46348 1.19928 5.55538 0.722409C6.64729 0.245543 7.81759 6.77746e-05 8.99949 1.40322e-08C10.1814 -6.77465e-05 11.3517 0.245273 12.4437 0.722014C13.5356 1.19876 14.5278 1.89756 15.3636 2.77853C16.1994 3.65956 16.8625 4.70552 17.3148 5.8567C17.7672 7.00787 18 8.2417 18 9.48774C18 10.7338 17.7672 11.9676 17.3148 13.1188C16.8625 14.27 16.1994 15.3159 15.3636 16.197ZM13.8959 4.3272C13.253 3.64942 12.4897 3.11177 11.6496 2.74495C10.8096 2.37813 9.90924 2.18934 8.99998 2.18934C8.09072 2.18934 7.19036 2.37813 6.35032 2.74495C5.51028 3.11177 4.74699 3.64942 4.10405 4.3272C3.46111 5.00499 2.9511 5.80964 2.60314 6.69522C2.25518 7.58079 2.07609 8.52994 2.07609 9.48847C2.07609 10.447 2.25518 11.3962 2.60314 12.2817C2.9511 13.1673 3.46111 13.972 4.10405 14.6497L8.99998 19.8081L13.8959 14.6497C14.539 13.972 15.0491 13.1674 15.3971 12.2818C15.7451 11.3962 15.9242 10.447 15.9242 9.48847C15.9242 8.5299 15.7451 7.58072 15.3971 6.69514C15.0491 5.80956 14.539 5.00493 13.8959 4.3272ZM8.99998 12.4077C8.63121 12.4165 8.26448 12.3476 7.92134 12.2049C7.5782 12.0622 7.26556 11.8487 7.00177 11.5769C6.73798 11.3051 6.52835 10.9805 6.38521 10.6221C6.24206 10.2637 6.16827 9.87881 6.16818 9.48995C6.16809 9.10109 6.24169 8.71614 6.38467 8.35768C6.52765 7.99922 6.73711 7.67449 7.00078 7.40255C7.26444 7.13061 7.57698 6.91693 7.92006 6.77408C8.26313 6.63123 8.62982 6.56207 8.99859 6.57066C9.72213 6.58753 10.4107 6.90233 10.9168 7.44767C11.4229 7.99301 11.7064 8.72556 11.7066 9.48849C11.7067 10.2514 11.4236 10.9841 10.9177 11.5297C10.4119 12.0753 9.72351 12.3905 8.99998 12.4077Z" fill="#E7E7E7"/>
</svg>
