<svg width="50" height="49" viewBox="0 0 50 49" fill="none" xmlns="http://www.w3.org/2000/svg">
<g filter="url(#filter0_d_1_1894)">
<rect x="2.46045" width="45.4866" height="45.4866" rx="4.16143" fill="white"/>
</g>
<path d="M30.7189 9.09766H19.6878C15.2047 9.09766 11.5574 12.7449 11.5574 17.2281V28.2592C11.5574 32.7423 15.2047 36.3896 19.6878 36.3896H30.7189C35.2021 36.3896 38.8493 32.7423 38.8493 28.2592V17.2281C38.8493 12.7449 35.202 9.09766 30.7189 9.09766ZM36.1038 28.2592C36.1038 31.2332 33.6929 33.6441 30.7189 33.6441H19.6878C16.7139 33.6441 14.3029 31.2332 14.3029 28.2592V17.2281C14.3029 14.2541 16.7139 11.8432 19.6878 11.8432H30.7189C33.6929 11.8432 36.1038 14.2541 36.1038 17.2281V28.2592Z" fill="url(#paint0_linear_1_1894)"/>
<path d="M25.2037 15.6855C21.3115 15.6855 18.145 18.8521 18.145 22.7442C18.145 26.6363 21.3115 29.8028 25.2037 29.8028C29.0959 29.8028 32.2624 26.6363 32.2624 22.7442C32.2624 18.852 29.0959 15.6855 25.2037 15.6855ZM25.2037 27.0573C22.8216 27.0573 20.8906 25.1263 20.8906 22.7442C20.8906 20.3621 22.8217 18.4311 25.2037 18.4311C27.5858 18.4311 29.5168 20.3621 29.5168 22.7442C29.5168 25.1263 27.5857 27.0573 25.2037 27.0573Z" fill="url(#paint1_linear_1_1894)"/>
<path d="M32.2761 17.4287C33.2103 17.4287 33.9675 16.6714 33.9675 15.7373C33.9675 14.8032 33.2103 14.0459 32.2761 14.0459C31.342 14.0459 30.5847 14.8032 30.5847 15.7373C30.5847 16.6714 31.342 17.4287 32.2761 17.4287Z" fill="url(#paint2_linear_1_1894)"/>
<defs>
<filter id="filter0_d_1_1894" x="0.795876" y="0" width="48.8157" height="48.8155" filterUnits="userSpaceOnUse" color-interpolation-filters="sRGB">
<feFlood flood-opacity="0" result="BackgroundImageFix"/>
<feColorMatrix in="SourceAlpha" type="matrix" values="0 0 0 0 0 0 0 0 0 0 0 0 0 0 0 0 0 0 127 0" result="hardAlpha"/>
<feOffset dy="1.66457"/>
<feGaussianBlur stdDeviation="0.832287"/>
<feComposite in2="hardAlpha" operator="out"/>
<feColorMatrix type="matrix" values="0 0 0 0 0 0 0 0 0 0 0 0 0 0 0 0 0 0 0.25 0"/>
<feBlend mode="normal" in2="BackgroundImageFix" result="effect1_dropShadow_1_1894"/>
<feBlend mode="normal" in="SourceGraphic" in2="effect1_dropShadow_1_1894" result="shape"/>
</filter>
<linearGradient id="paint0_linear_1_1894" x1="25.2034" y1="36.3102" x2="25.2034" y2="9.30964" gradientUnits="userSpaceOnUse">
<stop stop-color="#E09B3D"/>
<stop offset="0.3" stop-color="#C74C4D"/>
<stop offset="0.6" stop-color="#C21975"/>
<stop offset="1" stop-color="#7024C4"/>
</linearGradient>
<linearGradient id="paint1_linear_1_1894" x1="25.2037" y1="36.3108" x2="25.2037" y2="9.31022" gradientUnits="userSpaceOnUse">
<stop stop-color="#E09B3D"/>
<stop offset="0.3" stop-color="#C74C4D"/>
<stop offset="0.6" stop-color="#C21975"/>
<stop offset="1" stop-color="#7024C4"/>
</linearGradient>
<linearGradient id="paint2_linear_1_1894" x1="32.2761" y1="36.3095" x2="32.2761" y2="9.30898" gradientUnits="userSpaceOnUse">
<stop stop-color="#E09B3D"/>
<stop offset="0.3" stop-color="#C74C4D"/>
<stop offset="0.6" stop-color="#C21975"/>
<stop offset="1" stop-color="#7024C4"/>
</linearGradient>
</defs>
</svg>
