<svg width="40" height="56" viewBox="0 0 40 56" fill="none" xmlns="http://www.w3.org/2000/svg">
<path d="M20.1382 26.8291C18.3061 26.8291 16.5491 26.1013 15.2536 24.8058C13.9581 23.5103 13.2303 21.7533 13.2303 19.9212C13.2303 18.0891 13.9581 16.3321 15.2536 15.0366C16.5491 13.7411 18.3061 13.0133 20.1382 13.0133C21.9703 13.0133 23.7273 13.7411 25.0228 15.0366C26.3183 16.3321 27.0461 18.0891 27.0461 19.9212C27.0461 20.8284 26.8674 21.7266 26.5203 22.5647C26.1731 23.4028 25.6643 24.1644 25.0228 24.8058C24.3813 25.4473 23.6198 25.9561 22.7817 26.3033C21.9436 26.6504 21.0453 26.8291 20.1382 26.8291ZM20.1382 0.579102C15.0083 0.579102 10.0886 2.61692 6.46125 6.24427C2.8339 9.87162 0.796082 14.7914 0.796082 19.9212C0.796082 34.4278 20.1382 55.8423 20.1382 55.8423C20.1382 55.8423 39.4803 34.4278 39.4803 19.9212C39.4803 14.7914 37.4425 9.87162 33.8151 6.24427C30.1878 2.61692 25.268 0.579102 20.1382 0.579102Z" fill="#F7F7F7"/>
</svg>
