<svg width="48" height="48" viewBox="0 0 48 48" fill="none" xmlns="http://www.w3.org/2000/svg">
<circle cx="24" cy="24" r="24" fill="#B86121"/>
<path d="M12.5528 24.1123C12.4069 24.0761 12.2757 23.9956 12.1774 23.8819C12.079 23.7682 12.0183 23.6268 12.0035 23.4771C11.9888 23.3275 12.0207 23.177 12.0949 23.0462C12.1692 22.9155 12.2821 22.8109 12.4181 22.7469L34.9607 12.0699C35.0964 12.0057 35.2485 11.9851 35.3964 12.0107C35.5443 12.0364 35.6806 12.1071 35.7867 12.2132C35.8929 12.3194 35.9636 12.4557 35.9893 12.6036C36.0149 12.7514 35.9943 12.9036 35.9301 13.0393L25.2529 35.5814C25.189 35.7175 25.0846 35.8304 24.9539 35.9048C24.8232 35.9791 24.6727 36.0112 24.5231 35.9966C24.3735 35.9819 24.2321 35.9214 24.1182 35.8232C24.0044 35.725 23.9238 35.5939 23.8874 35.4481L21.7272 26.8033C21.695 26.6752 21.6287 26.5583 21.5352 26.465C21.4417 26.3718 21.3246 26.3057 21.1965 26.2739L12.5528 24.1123Z" fill="#B86121" stroke="white" stroke-width="1.5" stroke-linecap="round" stroke-linejoin="round"/>
</svg>
