<svg width="18" height="16" viewBox="0 0 18 16" fill="none" xmlns="http://www.w3.org/2000/svg">
<path d="M4.19584 15.9992C3.83871 15.9996 3.59147 15.6427 3.71729 15.3085L4.87362 12.2369C4.96407 12.0218 5.10044 11.8457 5.28274 11.7085C5.46433 11.5706 5.66626 11.5016 5.88852 11.5016C7.31623 11.5016 8.47362 10.3443 8.47362 8.91655V8.76769C8.47362 7.28006 7.27971 6.08986 5.80385 5.90316C4.54071 5.74337 3.41837 5.48497 2.43681 5.12796C0.81087 4.53657 -0.00140047 3.84325 1.81251e-06 3.04799C1.81251e-06 2.19202 0.870466 1.46984 2.6114 0.881456C4.35162 0.293819 6.48098 0 8.99948 0C11.5222 0 13.6529 0.293819 15.3918 0.881456C17.1306 1.46984 18 2.19202 18 3.04799C18 3.85749 17.1839 4.55456 15.5516 5.1392C14.5691 5.49065 13.4503 5.74543 12.195 5.90353C10.719 6.08942 9.52533 7.27994 9.52533 8.76753V8.91655C9.52533 10.3443 10.6827 11.5016 12.1104 11.5016C12.3285 11.5016 12.5297 11.5706 12.7141 11.7085C12.8985 11.8464 13.0356 12.0226 13.1253 12.2369L14.2812 15.3085C14.4068 15.6424 14.16 15.9989 13.8033 15.9989C13.5904 15.9989 13.3998 15.8667 13.3252 15.6673L12.8182 14.3124C12.4387 13.2981 11.4695 12.626 10.3866 12.626H7.61338C6.52984 12.626 5.5601 13.2985 5.18037 14.3133L4.6737 15.6675C4.59911 15.8668 4.4087 15.999 4.19584 15.9992ZM8.99948 4.97168C10.8883 4.97168 12.59 4.78317 14.1045 4.40616C15.9712 3.94329 15.971 2.1502 14.1045 1.68646C12.59 1.31019 10.8883 1.12243 8.99948 1.12318C7.11061 1.12393 5.40894 1.31207 3.89448 1.68758C2.02729 2.15056 2.0275 3.94455 3.89448 4.4084C5.40894 4.78392 7.11061 4.97168 8.99948 4.97168Z" fill="#0062E0"/>
</svg>
