<svg width="36" height="36" viewBox="0 0 36 36" fill="none" xmlns="http://www.w3.org/2000/svg">
<path d="M35.4482 32.3865L27.2872 24.2254C29.2521 21.6098 30.3128 18.426 30.3091 15.1546C30.3091 6.79839 23.5107 0 15.1546 0C6.79839 0 0 6.79839 0 15.1546C0 23.5107 6.79839 30.3091 15.1546 30.3091C18.426 30.3128 21.6098 29.2521 24.2254 27.2872L32.3865 35.4482C32.7996 35.8175 33.3384 36.0147 33.8923 35.9991C34.4461 35.9837 34.9731 35.7567 35.3649 35.3649C35.7567 34.9731 35.9837 34.4461 35.9991 33.8923C36.0147 33.3384 35.8175 32.7996 35.4482 32.3865ZM4.32987 15.1546C4.32987 13.0136 4.96473 10.9208 6.15416 9.14069C7.34359 7.36058 9.03418 5.97315 11.0121 5.15385C12.9901 4.33456 15.1666 4.12019 17.2664 4.53787C19.3661 4.95554 21.2949 5.98649 22.8088 7.50035C24.3226 9.01421 25.3536 10.943 25.7713 13.0428C26.1889 15.1426 25.9746 17.319 25.1553 19.297C24.336 21.2749 22.9485 22.9655 21.1684 24.155C19.3883 25.3444 17.2955 25.9792 15.1546 25.9792C12.2847 25.9758 9.53343 24.8342 7.50415 22.805C5.47488 20.7757 4.33332 18.0244 4.32987 15.1546Z" fill="#B86121"/>
</svg>
