<svg width="66" height="14" viewBox="0 0 66 14" fill="none" xmlns="http://www.w3.org/2000/svg">
<path d="M24.8084 0.908574C24.625 0.536934 24.095 0.536934 23.9116 0.908575L22.2014 4.37405C22.1286 4.52175 21.9876 4.62408 21.8246 4.64764L18.0031 5.2C17.5929 5.2593 17.4288 5.76332 17.7255 6.05276L20.4919 8.75148C20.6097 8.86637 20.6634 9.03186 20.6355 9.19402L19.9815 13.0017C19.9113 13.4101 20.3399 13.7216 20.7068 13.5289L24.1275 11.7321C24.2731 11.6557 24.4469 11.6557 24.5925 11.7321L28.0132 13.5289C28.3801 13.7216 28.8087 13.4101 28.7385 13.0017L28.0845 9.19424C28.0567 9.03196 28.1105 8.86635 28.2284 8.75145L30.9942 6.05702C31.2911 5.76783 31.1275 5.26377 30.7173 5.20409L26.8951 4.64785C26.7322 4.62415 26.5915 4.52187 26.5187 4.37433L24.8084 0.908574Z" fill="#D79B00" stroke="#E7E7E7" stroke-width="0.5"/>
<path d="M41.5286 0.908574C41.3452 0.536934 40.8152 0.536934 40.6318 0.908575L38.9217 4.37405C38.8488 4.52175 38.7078 4.62408 38.5448 4.64764L34.7233 5.2C34.3131 5.2593 34.149 5.76332 34.4457 6.05276L37.2121 8.75148C37.3299 8.86637 37.3836 9.03186 37.3557 9.19402L36.7017 13.0017C36.6315 13.4101 37.0601 13.7216 37.427 13.5289L40.8477 11.7321C40.9933 11.6557 41.1672 11.6557 41.3127 11.7321L44.7334 13.5289C45.1003 13.7216 45.5289 13.4101 45.4587 13.0017L44.8047 9.19424C44.7769 9.03196 44.8307 8.86635 44.9486 8.75145L47.7145 6.05702C48.0113 5.76783 47.8477 5.26377 47.4376 5.20409L43.6153 4.64785C43.4525 4.62415 43.3117 4.52187 43.2389 4.37433L41.5286 0.908574Z" fill="#D79B00" stroke="#E7E7E7" stroke-width="0.5"/>
<path d="M58.2488 0.908574C58.0654 0.536934 57.5355 0.536934 57.3521 0.908575L55.6419 4.37405C55.569 4.52175 55.428 4.62408 55.265 4.64764L51.4436 5.2C51.0333 5.2593 50.8692 5.76332 51.1659 6.05276L53.9323 8.75148C54.0501 8.86637 54.1038 9.03186 54.0759 9.19402L53.4219 13.0017C53.3518 13.4101 53.7803 13.7216 54.1472 13.5289L57.5679 11.7321C57.7135 11.6557 57.8874 11.6557 58.0329 11.7321L61.4537 13.5289C61.8205 13.7216 62.2491 13.4101 62.1789 13.0017L61.525 9.19424C61.4971 9.03196 61.5509 8.86635 61.6688 8.75145L64.4347 6.05702C64.7315 5.76783 64.5679 5.26377 64.1578 5.20409L60.3355 4.64785C60.1727 4.62415 60.0319 4.52187 59.9591 4.37433L58.2488 0.908574Z" fill="#D79B00" stroke="#E7E7E7" stroke-width="0.5"/>
<path d="M7.80837 0.908574C7.62497 0.536934 7.09503 0.536934 6.91163 0.908575L5.20144 4.37405C5.12855 4.52175 4.9876 4.62408 4.82459 4.64764L1.00313 5.2C0.592895 5.2593 0.428809 5.76332 0.725508 6.05276L3.49188 8.75148C3.60965 8.86637 3.66336 9.03186 3.63551 9.19402L2.98148 13.0017C2.91133 13.4101 3.33992 13.7216 3.70678 13.5289L7.12749 11.7321C7.27307 11.6557 7.44694 11.6557 7.59251 11.7321L11.0132 13.5289C11.3801 13.7216 11.8087 13.4101 11.7385 13.0017L11.0845 9.19424C11.0567 9.03196 11.1105 8.86635 11.2284 8.75145L13.9942 6.05702C14.2911 5.76783 14.1275 5.26377 13.7173 5.20409L9.89507 4.64785C9.73225 4.62415 9.59151 4.52187 9.5187 4.37433L7.80837 0.908574Z" fill="#D79B00" stroke="#E7E7E7" stroke-width="0.5"/>
</svg>
