<svg width="18" height="17" viewBox="0 0 18 17" fill="none" xmlns="http://www.w3.org/2000/svg">
<path d="M4.19584 16.4992C3.83871 16.4996 3.59147 16.1427 3.71729 15.8085L4.87362 12.7369C4.96407 12.5218 5.10044 12.3457 5.28274 12.2085C5.46433 12.0706 5.66626 12.0016 5.88852 12.0016C7.31623 12.0016 8.47362 10.8443 8.47362 9.41655V9.26769C8.47362 7.78006 7.27971 6.58986 5.80385 6.40316C4.54071 6.24337 3.41837 5.98497 2.43681 5.62796C0.81087 5.03657 -0.00140047 4.34325 1.81251e-06 3.54799C1.81251e-06 2.69202 0.870466 1.96984 2.6114 1.38146C4.35162 0.793819 6.48098 0.5 8.99948 0.5C11.5222 0.5 13.6529 0.793819 15.3918 1.38146C17.1306 1.96984 18 2.69202 18 3.54799C18 4.35749 17.1839 5.05456 15.5516 5.6392C14.5691 5.99065 13.4503 6.24543 12.195 6.40353C10.719 6.58942 9.52533 7.77994 9.52533 9.26753V9.41655C9.52533 10.8443 10.6827 12.0016 12.1104 12.0016C12.3285 12.0016 12.5297 12.0706 12.7141 12.2085C12.8985 12.3464 13.0356 12.5226 13.1253 12.7369L14.2812 15.8085C14.4068 16.1424 14.16 16.4989 13.8033 16.4989C13.5904 16.4989 13.3998 16.3667 13.3252 16.1673L12.8182 14.8124C12.4387 13.7981 11.4695 13.126 10.3866 13.126H7.61338C6.52984 13.126 5.5601 13.7985 5.18037 14.8133L4.6737 16.1675C4.59911 16.3668 4.4087 16.499 4.19584 16.4992ZM8.99948 5.47168C10.8883 5.47168 12.59 5.28317 14.1045 4.90616C15.9712 4.44329 15.971 2.6502 14.1045 2.18646C12.59 1.81019 10.8883 1.62243 8.99948 1.62318C7.11061 1.62393 5.40894 1.81207 3.89448 2.18758C2.02729 2.65056 2.0275 4.44455 3.89448 4.9084C5.40894 5.28392 7.11061 5.47168 8.99948 5.47168Z" fill="#EBEBEB"/>
</svg>
